# xmcd
#
# Track frame offsets: 
#        150
#        18333
#        41085
#        60618
#        81052
#        100159
#        120041
#        141771
#        162080
#        184052
#        201147
#
# Disc length: 2881 seconds
#
# Revision: 1
# Processed by: cddbd v1.5.2PL0 Copyright (c) Steve Scherf et al.
# Submitted via: ExactAudioCopy v1.0b3
#
DISCID=840b3f0b
DTITLE=Johnny Rawls - My Turn To Win
DYEAR=1999
DGENRE=Blues
TTITLE0=Bad Reputation
TTITLE1=Back In Your Arms
TTITLE2=Oh Please Come Back
TTITLE3=I Been Lookin'
TTITLE4=My Turn To Win
TTITLE5=Lucy
TTITLE6=Can't Stop Thinkin' 'Bout You
TTITLE7=Nobody's Gonna Take Your Place
TTITLE8=I Been Broken Hearted
TTITLE9=That's Why I'm Goin' Away
TTITLE10=I'll Be Alright
EXTD=
EXTT0=
EXTT1=
EXTT2=
EXTT3=
EXTT4=
EXTT5=
EXTT6=
EXTT7=
EXTT8=
EXTT9=
EXTT10=
PLAYORDER=
